<svg width="37" height="60" viewBox="0 0 37 60" fill="none" xmlns="http://www.w3.org/2000/svg">
<path d="M32.0698 19.5923L36.3414 1.33655C36.4206 0.99832 36.2106 0.660609 35.8729 0.581405C35.5346 0.502202 35.1969 0.712203 35.1177 1.05017C35.1146 1.06333 35.1118 1.07829 35.1097 1.09145L32.0698 19.5925V19.5923Z" fill="#5374B820"/>
<path d="M27.9296 40.4083L23.6577 58.664C23.5788 59.0022 23.7885 59.3399 24.1265 59.4191C24.4645 59.4983 24.8025 59.2883 24.8817 58.9506C24.8848 58.9372 24.8876 58.9225 24.8896 58.9093L27.9296 40.4083Z" fill="#5374B820"/>
<path d="M1.09038 24.8903L19.5915 27.93L1.33573 23.6584C0.997764 23.5792 0.659795 23.7892 0.580592 24.1272C0.501646 24.4652 0.711394 24.8031 1.04936 24.8823C1.06252 24.8854 1.07748 24.8883 1.09064 24.8906L1.09038 24.8903Z" fill="#5374B820"/>
<path d="M21.1747 35.8968L5.24687 45.7843C4.95199 45.9675 4.86117 46.3547 5.04435 46.6496C5.22752 46.9445 5.61477 47.0353 5.90965 46.8519C5.92126 46.8446 5.93391 46.8364 5.94474 46.8287L21.1747 35.8968Z" fill="#5374B820"/>
<path d="M24.103 21.175L14.2158 5.24687C14.0326 4.95225 13.6453 4.86169 13.3502 5.04461C13.0553 5.22778 12.9648 5.61503 13.1479 5.91017C13.1549 5.92178 13.1634 5.93442 13.1712 5.94526L24.103 21.1753V21.175Z" fill="#5374B820"/>
<path d="M24.103 38.8253L13.1712 54.0553C12.9689 54.3373 13.0331 54.7299 13.3151 54.9322C13.5971 55.1347 13.9898 55.0702 14.192 54.7882C14.2 54.7771 14.2086 54.7645 14.2155 54.7531L24.1028 38.8253H24.103Z" fill="#5374B820"/>
<path d="M21.1747 24.1037L5.94472 13.1718C5.66274 12.9696 5.27007 13.0338 5.06781 13.3158C4.86554 13.5975 4.93005 13.9904 5.21203 14.1927C5.22287 14.2005 5.23576 14.209 5.24711 14.2162L21.175 24.1037H21.1747Z" fill="#5374B820"/>
<path d="M19.5915 32.0706L1.09041 35.1102C0.748312 35.1667 0.516121 35.4897 0.572363 35.8323C0.628605 36.1749 0.951868 36.4069 1.29448 36.3504C1.3079 36.3483 1.3226 36.3452 1.33576 36.3424L19.5915 32.0706Z" fill="#5374B820"/>
<path d="M27.9296 19.5922L24.8897 1.09116C24.8334 0.748551 24.5102 0.516868 24.1678 0.57311C23.8255 0.629094 23.5933 0.952358 23.6495 1.29497C23.6518 1.30839 23.6549 1.32335 23.6578 1.33651L27.9296 19.5922Z" fill="#5374B820"/>
<path d="M32.0698 40.4083L35.1097 58.9091C35.166 59.2517 35.4892 59.4836 35.8316 59.4274C36.1742 59.3714 36.4064 59.0479 36.3499 58.7055C36.3476 58.6921 36.3445 58.6774 36.3414 58.6642L32.0698 40.4083Z" fill="#5374B820"/>
<path d="M25.9386 39.8048L18.1875 56.8761C18.044 57.1922 18.1838 57.5647 18.4999 57.7081C18.8162 57.8516 19.1885 57.7118 19.3319 57.3957C19.3376 57.3833 19.3435 57.3694 19.3479 57.3568L25.9386 39.8046V39.8048Z" fill="#5374B820"/>
<path d="M2.64309 19.3484L20.1953 25.9388L3.12398 18.188C2.80768 18.0443 2.43541 18.1844 2.2917 18.5004C2.14826 18.8162 2.28809 19.189 2.60413 19.3324C2.61652 19.3381 2.63045 19.3435 2.64283 19.3484H2.64309Z" fill="#5374B820"/>
<path d="M20.195 34.0614L2.64279 40.6518C2.31798 40.7738 2.15363 41.136 2.27566 41.4608C2.39744 41.7859 2.75991 41.9505 3.08472 41.8282C3.09736 41.8236 3.11129 41.8179 3.12368 41.8122L20.195 34.0614Z" fill="#5374B820"/>
<path d="M25.9382 20.1954L19.3478 2.6435C19.2258 2.31869 18.8636 2.15409 18.5388 2.27612C18.2139 2.39815 18.0494 2.76062 18.1714 3.08518C18.176 3.09808 18.182 3.11201 18.1874 3.12413L25.9382 20.1954Z" fill="#5374B820"/>
<path d="M22.4922 37.5074L8.8014 50.31C8.54806 50.5474 8.53463 50.9447 8.77173 51.1983C9.00856 51.4516 9.40639 51.4648 9.66 51.2279C9.6698 51.2187 9.68038 51.2078 9.68967 51.1983L22.4922 37.5074Z" fill="#5374B820"/>
<path d="M22.4922 22.4931L9.68967 8.80225C9.45257 8.54891 9.05501 8.53549 8.8014 8.77259C8.54806 9.00942 8.53463 9.40724 8.77173 9.66059C8.78102 9.67065 8.79186 9.68124 8.8014 9.69052L22.4922 22.4931Z" fill="#5374B820"/>
<path d="M0.649226 30.6281L19.383 30.0001L0.649226 29.3722C0.302486 29.3606 0.0117258 29.6322 0.000374142 29.9792C-0.0114935 30.326 0.260431 30.6167 0.607171 30.6283C0.620845 30.6289 0.635811 30.6289 0.649226 30.6283V30.6281Z" fill="#5374B820"/>
<path d="M29.9999 19.3833L30.6279 0.649722C30.6395 0.302982 30.3676 0.0122259 30.0208 0.000358331C29.6741 -0.0112513 29.3833 0.260679 29.372 0.607419C29.3715 0.620835 29.3715 0.636055 29.372 0.649471L29.9999 19.383V19.3833Z" fill="#5374B820"/>
<path d="M30.6279 59.3505L29.9999 40.617L29.372 59.3505C29.3601 59.6973 29.632 59.988 29.9787 59.9997C30.3257 60.0113 30.6162 59.7396 30.6281 59.3926C30.6284 59.3792 30.6284 59.364 30.6281 59.3505H30.6279Z" fill="#5374B820"/>
</svg>
